# Blender 4.0.2
# www.blender.org
mtllib rainDrop.mtl
o pSphere6_lambert1_0
v 4.549725 0.000000 -3.305568
v 5.348522 0.000000 -1.737840
v 0.000000 -0.805176 0.000000
v 3.305567 0.000000 -4.549726
v 1.737840 0.000000 -5.348522
v 0.000000 0.000000 -5.623769
v -1.737840 0.000000 -5.348522
v -3.305567 0.000000 -4.549724
v -4.549723 0.000000 -3.305568
v -5.348520 0.000000 -1.737840
v -5.623766 0.000000 0.000000
v -5.348520 0.000000 1.737840
v -4.549723 0.000000 3.305568
v -3.305567 0.000000 4.549724
v -1.737840 0.000000 5.348520
v -0.000000 0.000000 5.623765
v 1.737839 0.000000 5.348520
v 3.305565 0.000000 4.549722
v 4.549721 0.000000 3.305568
v 5.348518 0.000000 1.737839
v 5.623764 0.000000 0.000000
v 10.834026 20.277754 -8.010015
v -0.000001 41.269970 -0.589042
v 12.736164 20.277750 -4.276862
v 7.871384 20.277750 -10.972663
v -0.000001 41.269970 -0.589042
v 4.138229 20.277754 -12.874797
v -0.000001 41.269970 -0.589042
v 7.871384 20.277750 -10.972663
v -0.000000 20.277758 -13.530231
v -0.000001 41.269970 -0.589042
v -4.138231 20.277750 -12.874797
v -0.000001 41.269970 -0.589042
v -7.871380 20.277750 -10.972659
v -0.000001 41.269970 -0.589042
v -10.834026 20.277750 -8.010012
v -0.000001 41.269970 -0.589042
v -7.871380 20.277750 -10.972659
v -12.736160 20.277750 -4.276860
v -0.000001 41.269970 -0.589042
v -13.391594 20.277750 -0.138631
v -0.000001 41.269970 -0.589042
v -12.736160 20.277756 3.999599
v -0.000001 41.269970 -0.589042
v -10.834023 20.277750 7.732748
v -0.000001 41.269970 -0.589042
v 12.736156 20.277756 3.999599
v -0.000001 41.269970 -0.589042
v 10.834023 20.277750 7.732748
v 13.391586 20.277750 -0.138631
v -0.000001 41.269970 -0.589042
v -0.000001 41.269970 -0.589042
v -7.871380 20.277752 10.695395
v -0.000001 41.269970 -0.589042
v -4.138229 20.277752 12.597529
v -0.000001 41.269970 -0.589042
v -7.871380 20.277752 10.695395
v -0.000001 20.277750 13.252963
v -0.000001 41.269970 -0.589042
v 4.138227 20.277748 12.597529
v -0.000001 41.269970 -0.589042
v 7.871376 20.277746 10.695395
v -0.000001 41.269970 -0.589042
v -0.000001 41.269970 -0.589042
v 7.871376 20.277746 10.695395
v 8.654087 2.336724 -6.287565
v 10.173492 2.336724 -3.305568
v 6.287563 2.336724 -8.654089
v 3.305567 2.336724 -10.173491
v 0.000000 2.336724 -10.697043
v -3.305567 2.336724 -10.173491
v -6.287561 2.336724 -8.654089
v -8.654087 2.336724 -6.287563
v -10.173489 2.336724 -3.305568
v -10.697037 2.336724 0.000000
v -10.173489 2.336724 3.305568
v -8.654083 2.336724 6.287563
v -6.287561 2.336724 8.654085
v -3.305567 2.336724 10.173488
v -0.000000 2.336724 10.697040
v 3.305565 2.336724 10.173488
v 6.287560 2.336724 8.654085
v 8.654083 2.336724 6.287561
v 10.173485 2.336724 3.305566
v 10.697037 2.336724 0.000000
v 8.654087 2.336724 -6.287565
v 11.911331 5.976251 -8.654089
v 14.002609 5.976251 -4.549724
v 10.173492 2.336724 -3.305568
v 6.287563 2.336724 -8.654089
v 8.654087 5.976251 -11.911334
v 3.305567 2.336724 -10.173491
v 4.549723 5.976251 -14.002613
v 8.654087 5.976251 -11.911334
v 6.287563 2.336724 -8.654089
v 0.000000 2.336724 -10.697043
v 0.000000 5.976251 -14.723217
v -3.305567 2.336724 -10.173491
v -4.549723 5.976251 -14.002613
v -6.287561 2.336724 -8.654089
v -8.654087 5.976251 -11.911330
v -8.654087 2.336724 -6.287563
v -11.911327 5.976251 -8.654089
v -8.654087 5.976251 -11.911330
v -6.287561 2.336724 -8.654089
v -10.173489 2.336724 -3.305568
v -14.002602 5.976251 -4.549724
v -10.697037 2.336724 0.000000
v -14.723213 5.976251 0.000000
v -10.173489 2.336724 3.305568
v -14.002602 5.976251 4.549724
v -8.654083 2.336724 6.287563
v -11.911327 5.976251 8.654085
v -6.287561 2.336724 8.654085
v -8.654083 5.976251 11.911326
v -3.305567 2.336724 10.173488
v -4.549723 5.976251 14.002605
v -8.654083 5.976251 11.911326
v -6.287561 2.336724 8.654085
v -0.000000 2.336724 10.697040
v -0.000000 5.976251 14.723209
v 3.305565 2.336724 10.173488
v 4.549721 5.976251 14.002605
v 6.287560 2.336724 8.654085
v 8.654083 5.976251 11.911326
v 8.654083 2.336724 6.287561
v 11.911324 5.976251 8.654085
v 8.654083 5.976251 11.911326
v 6.287560 2.336724 8.654085
v 10.173485 2.336724 3.305566
v 14.002602 5.976251 4.549722
v 10.697037 2.336724 0.000000
v 14.723206 5.976251 0.000000
v 13.729389 10.007621 -9.997789
v 16.139870 10.007621 -5.266963
v 9.974987 10.007621 -13.752192
v 5.244162 10.007621 -16.162670
v 9.974987 10.007621 -13.752192
v 0.000000 10.007621 -16.993267
v -5.244164 10.007621 -16.162670
v -9.974987 10.007621 -13.752192
v -13.729393 10.007621 -9.997789
v -9.974987 10.007621 -13.752192
v -16.139862 10.007621 -5.266962
v -16.970459 10.007621 -0.022801
v -16.139862 10.007621 5.221363
v -13.729385 10.007621 9.952185
v -9.974983 10.007621 13.706588
v -5.244160 10.007621 16.117069
v -9.974983 10.007621 13.706588
v -0.000000 10.007621 16.947659
v 5.244158 10.007621 16.117062
v 9.974983 10.007621 13.706588
v 13.729385 10.007621 9.952185
v 9.974983 10.007621 13.706588
v 16.139862 10.007621 5.221359
v 16.970451 10.007621 -0.022801
v 13.060608 14.969036 -9.568769
v 15.353661 14.969032 -5.068391
v 9.489086 14.969032 -13.140288
v 4.988707 14.969036 -15.433346
v 9.489086 14.969032 -13.140288
v 0.000000 14.969036 -16.223484
v -4.988707 14.969032 -15.433346
v -9.489082 14.969032 -13.140288
v -13.060600 14.969032 -9.568766
v -9.489082 14.969032 -13.140288
v -15.353653 14.969032 -5.068389
v -16.143791 14.969032 -0.079683
v -15.353661 14.969036 4.909024
v -13.060600 14.969032 9.409399
v -9.489082 14.969038 12.980922
v -4.988705 14.969034 15.273975
v -9.489082 14.969038 12.980922
v -0.000000 14.969032 16.064106
v 4.988705 14.969032 15.273975
v 9.489079 14.969032 12.980922
v 13.060604 14.969032 9.409399
v 9.489079 14.969032 12.980922
v 15.353653 14.969036 4.909022
v 16.143776 14.969032 -0.079683
vn 0.2903 -0.9334 -0.2109
vn 0.3413 -0.9334 -0.1109
vn -0.0000 -1.0000 -0.0000
vn 0.2109 -0.9334 -0.2903
vn 0.1109 -0.9334 -0.3413
vn -0.0000 -0.9334 -0.3588
vn -0.1109 -0.9334 -0.3413
vn -0.2109 -0.9334 -0.2903
vn -0.2903 -0.9334 -0.2109
vn -0.3413 -0.9334 -0.1109
vn -0.3589 -0.9334 -0.0000
vn -0.3413 -0.9334 0.1109
vn -0.2903 -0.9334 0.2109
vn -0.2109 -0.9334 0.2903
vn -0.1109 -0.9334 0.3413
vn -0.0000 -0.9334 0.3589
vn 0.1109 -0.9334 0.3413
vn 0.2109 -0.9334 0.2903
vn 0.2903 -0.9334 0.2109
vn 0.3413 -0.9334 0.1109
vn 0.3588 -0.9334 -0.0000
vn 0.6995 0.5031 -0.5075
vn -0.0000 1.0000 -0.0076
vn 0.8204 0.5062 -0.2659
vn 0.5092 0.5006 -0.7001
vn -0.0000 1.0000 -0.0077
vn 0.2680 0.4990 -0.8241
vn -0.0000 0.4984 -0.8669
vn -0.2680 0.4990 -0.8241
vn -0.5092 0.5006 -0.7001
vn -0.6995 0.5031 -0.5075
vn -0.8204 0.5062 -0.2659
vn -0.8604 0.5096 0.0007
vn -0.8161 0.5131 0.2659
vn -0.6926 0.5161 0.5039
vn 0.8161 0.5131 0.2659
vn 0.6926 0.5161 0.5039
vn 0.8604 0.5096 0.0007
vn -0.5022 0.5186 0.6920
vn -0.2637 0.5201 0.8124
vn -0.0000 0.5206 0.8538
vn 0.2637 0.5201 0.8124
vn 0.5022 0.5186 0.6920
vn 0.4743 -0.8101 -0.3446
vn 0.5576 -0.8101 -0.1812
vn 0.3446 -0.8101 -0.4743
vn 0.1812 -0.8101 -0.5576
vn -0.0000 -0.8101 -0.5863
vn -0.1812 -0.8101 -0.5576
vn -0.3446 -0.8101 -0.4743
vn -0.4743 -0.8101 -0.3446
vn -0.5576 -0.8101 -0.1812
vn -0.5863 -0.8101 -0.0000
vn -0.5576 -0.8101 0.1812
vn -0.4743 -0.8101 0.3446
vn -0.3446 -0.8101 0.4743
vn -0.1812 -0.8101 0.5576
vn -0.0000 -0.8101 0.5863
vn 0.1812 -0.8101 0.5576
vn 0.3446 -0.8101 0.4743
vn 0.4743 -0.8101 0.3446
vn 0.5576 -0.8101 0.1812
vn 0.5863 -0.8101 -0.0000
vn 0.6400 -0.6118 -0.4648
vn 0.7527 -0.6114 -0.2443
vn 0.4649 -0.6122 -0.6396
vn 0.2444 -0.6124 -0.7518
vn -0.0000 -0.6125 -0.7905
vn -0.2444 -0.6124 -0.7518
vn -0.4649 -0.6122 -0.6396
vn -0.6400 -0.6118 -0.4648
vn -0.7527 -0.6114 -0.2443
vn -0.7917 -0.6109 0.0002
vn -0.7533 -0.6103 0.2450
vn -0.6411 -0.6099 0.4660
vn -0.4659 -0.6095 0.6415
vn -0.2450 -0.6092 0.7542
vn -0.0000 -0.6092 0.7931
vn 0.2450 -0.6092 0.7542
vn 0.4659 -0.6095 0.6415
vn 0.6410 -0.6099 0.4660
vn 0.7533 -0.6104 0.2450
vn 0.7918 -0.6108 0.0002
vn 0.8003 -0.1477 -0.5811
vn 0.9411 -0.1454 -0.3053
vn 0.5814 -0.1496 -0.7998
vn 0.3056 -0.1508 -0.9401
vn -0.0000 -0.1512 -0.9885
vn -0.3056 -0.1507 -0.9401
vn -0.5814 -0.1496 -0.7998
vn -0.8003 -0.1477 -0.5811
vn -0.9411 -0.1454 -0.3053
vn -0.9898 -0.1427 0.0004
vn -0.9415 -0.1401 0.3064
vn -0.8011 -0.1378 0.5825
vn -0.5821 -0.1359 0.8016
vn -0.3061 -0.1347 0.9424
vn -0.5821 -0.1359 0.8017
vn -0.0000 -0.1343 0.9909
vn 0.3061 -0.1347 0.9424
vn 0.5821 -0.1359 0.8017
vn 0.8011 -0.1378 0.5825
vn 0.9415 -0.1401 0.3064
vn 0.9898 -0.1427 0.0004
vn 0.7691 0.3102 -0.5588
vn 0.9033 0.3129 -0.2936
vn 0.5591 0.3081 -0.7697
vn 0.2941 0.3067 -0.9052
vn 0.5592 0.3081 -0.7697
vn -0.0000 0.3063 -0.9519
vn -0.2941 0.3067 -0.9052
vn -0.5591 0.3081 -0.7697
vn -0.7691 0.3102 -0.5589
vn -0.5592 0.3081 -0.7697
vn -0.9033 0.3129 -0.2936
vn -0.9488 0.3158 -0.0001
vn -0.9015 0.3187 0.2928
vn -0.7661 0.3214 0.5565
vn -0.5562 0.3235 0.7655
vn -0.2923 0.3248 0.8995
vn -0.0000 0.3253 0.9456
vn 0.2923 0.3248 0.8995
vn 0.5562 0.3235 0.7655
vn 0.7661 0.3214 0.5565
vn 0.9015 0.3187 0.2928
vn 0.9488 0.3158 -0.0001
vt 0.694598 0.694044
vt 0.705072 0.673724
vt 0.635688 0.650820
vt 0.678358 0.710132
vt 0.657941 0.720415
vt 0.635346 0.723886
vt 0.612784 0.720204
vt 0.592465 0.709731
vt 0.576376 0.693491
vt 0.566093 0.673074
vt 0.562623 0.650478
vt 0.566304 0.627917
vt 0.576778 0.607597
vt 0.593018 0.591508
vt 0.613435 0.581225
vt 0.636030 0.577755
vt 0.658592 0.581437
vt 0.678911 0.591910
vt 0.695000 0.608150
vt 0.705283 0.628567
vt 0.708753 0.651162
vt 0.299634 0.312072
vt 0.625197 0.293299
vt 0.300604 0.254812
vt 0.303048 0.367739
vt 0.625267 0.322161
vt 0.413005 0.679617
vt 0.395116 1.003022
vt 0.468369 0.686633
vt 0.356571 0.675719
vt 0.360208 0.999535
vt 0.300001 0.676072
vt 0.332367 0.998673
vt 0.244298 0.679588
vt 0.297374 0.999970
vt 0.698552 0.458491
vt 0.372909 0.461846
vt 0.694076 0.514008
vt 0.698461 0.401343
vt 0.373402 0.433493
vt 0.697146 0.343336
vt 0.371988 0.386438
vt 0.695935 0.285139
vt 0.369799 0.330995
vt 0.694461 0.227522
vt 0.367653 0.275915
vt 0.304421 0.138492
vt 0.632795 0.133680
vt 0.306460 0.080885
vt 0.302621 0.196725
vt 0.630083 0.189328
vt 0.627249 0.245516
vt 0.690397 0.171423
vt 0.365113 0.231493
vt 0.080094 0.716070
vt 0.088013 0.386370
vt 0.025082 0.709968
vt 0.136298 0.717085
vt 0.114712 0.387764
vt 0.192525 0.717106
vt 0.164296 0.388216
vt 0.247660 0.712077
vt 0.191179 0.387300
vt 0.635782 0.089003
vt 0.311153 0.024839
vt 0.753258 0.736478
vt 0.773973 0.695955
vt 0.721034 0.768617
vt 0.680456 0.789225
vt 0.635495 0.796285
vt 0.590554 0.789106
vt 0.550030 0.768390
vt 0.517891 0.736166
vt 0.497283 0.695588
vt 0.490224 0.650627
vt 0.497403 0.605686
vt 0.518118 0.565162
vt 0.550342 0.533024
vt 0.590921 0.512416
vt 0.635881 0.505356
vt 0.680822 0.512535
vt 0.721346 0.533251
vt 0.753485 0.565475
vt 0.774092 0.606053
vt 0.781152 0.651013
vt 0.028980 0.291526
vt 0.097510 0.309750
vt 0.103896 0.251482
vt 0.034688 0.243822
vt 0.016302 0.334898
vt 0.083820 0.368717
vt 0.410941 0.407911
vt 0.421667 0.478510
vt 0.479962 0.469577
vt 0.455159 0.398767
vt 0.364329 0.409941
vt 0.362650 0.479656
vt 0.318005 0.406193
vt 0.303733 0.475191
vt 0.274917 0.394996
vt 0.245893 0.462630
vt 0.972407 0.439574
vt 0.902220 0.458251
vt 0.915080 0.517151
vt 0.985203 0.483971
vt 0.965888 0.391451
vt 0.896005 0.399866
vt 0.963345 0.342139
vt 0.893699 0.342156
vt 0.964352 0.293234
vt 0.895020 0.284711
vt 0.969974 0.246259
vt 0.901216 0.227220
vt 0.983056 0.203597
vt 0.915790 0.170397
vt 0.087024 0.988158
vt 0.075022 0.917822
vt 0.015239 0.926824
vt 0.042163 0.997718
vt 0.134560 0.985149
vt 0.134587 0.915426
vt 0.181954 0.987576
vt 0.194119 0.918443
vt 0.225977 0.997178
vt 0.254028 0.928400
vt 0.027834 0.098612
vt 0.098151 0.079057
vt 0.084191 0.022290
vt 0.014497 0.055194
vt 0.034218 0.145822
vt 0.104341 0.136518
vt 0.036217 0.194716
vt 0.105957 0.193888
vt 0.157187 0.318931
vt 0.162001 0.255522
vt 0.149625 0.385788
vt 0.425934 0.537866
vt 0.493043 0.533727
vt 0.360881 0.538375
vt 0.295927 0.534035
vt 0.229104 0.525744
vt 0.842012 0.467124
vt 0.848490 0.533929
vt 0.837669 0.403809
vt 0.835753 0.342090
vt 0.836784 0.280483
vt 0.841557 0.217552
vt 0.851220 0.151595
vt 0.069947 0.858707
vt 0.002467 0.861553
vt 0.134989 0.858505
vt 0.200082 0.859586
vt 0.267618 0.863614
vt 0.158333 0.069508
vt 0.149317 0.003616
vt 0.162907 0.132280
vt 0.163973 0.193789
vt 0.222343 0.319743
vt 0.225056 0.256773
vt 0.222224 0.384258
vt 0.423234 0.602459
vt 0.488867 0.605633
vt 0.358942 0.600794
vt 0.294642 0.598543
vt 0.228892 0.597621
vt 0.776323 0.467303
vt 0.775298 0.531667
vt 0.774317 0.404477
vt 0.772800 0.342521
vt 0.773014 0.280490
vt 0.774904 0.217363
vt 0.776066 0.151873
vt 0.071610 0.793896
vt 0.007004 0.790150
vt 0.135546 0.794864
vt 0.199533 0.794924
vt 0.264256 0.792376
vt 0.225526 0.069793
vt 0.225027 0.004395
vt 0.227025 0.132787
vt 0.226961 0.194759
s 1
usemtl lambert1
f 1/1/1 2/2/2 3/3/3
f 4/4/4 1/1/1 3/3/3
f 5/5/5 4/4/4 3/3/3
f 6/6/6 5/5/5 3/3/3
f 7/7/7 6/6/6 3/3/3
f 8/8/8 7/7/7 3/3/3
f 9/9/9 8/8/8 3/3/3
f 10/10/10 9/9/9 3/3/3
f 11/11/11 10/10/10 3/3/3
f 12/12/12 11/11/11 3/3/3
f 13/13/13 12/12/12 3/3/3
f 14/14/14 13/13/13 3/3/3
f 15/15/15 14/14/14 3/3/3
f 16/16/16 15/15/15 3/3/3
f 17/17/17 16/16/16 3/3/3
f 18/18/18 17/17/17 3/3/3
f 19/19/19 18/18/18 3/3/3
f 20/20/20 19/19/19 3/3/3
f 21/21/21 20/20/20 3/3/3
f 2/2/2 21/21/21 3/3/3
f 22/22/22 23/23/23 24/24/24
f 25/25/25 26/26/26 22/22/22
f 27/27/27 28/28/23 29/29/25
f 30/30/28 31/31/23 27/27/27
f 32/32/29 33/33/23 30/30/28
f 34/34/30 35/35/23 32/32/29
f 36/36/31 37/37/26 38/38/30
f 39/39/32 40/40/23 36/36/31
f 41/41/33 42/42/26 39/39/32
f 43/43/34 44/44/23 41/41/33
f 45/45/35 46/46/23 43/43/34
f 47/47/36 48/48/23 49/49/37
f 50/50/38 51/51/23 47/47/36
f 24/24/24 52/52/26 50/50/38
f 53/53/39 54/54/26 45/45/35
f 55/55/40 56/56/23 57/57/39
f 58/58/41 59/59/26 55/55/40
f 60/60/42 61/61/26 58/58/41
f 62/62/43 63/63/23 60/60/42
f 49/49/37 64/64/23 65/65/43
f 1/1/1 66/66/44 67/67/45
f 1/1/1 67/67/45 2/2/2
f 4/4/4 68/68/46 66/66/44
f 4/4/4 66/66/44 1/1/1
f 5/5/5 69/69/47 68/68/46
f 5/5/5 68/68/46 4/4/4
f 6/6/6 70/70/48 69/69/47
f 6/6/6 69/69/47 5/5/5
f 7/7/7 71/71/49 70/70/48
f 7/7/7 70/70/48 6/6/6
f 8/8/8 72/72/50 71/71/49
f 8/8/8 71/71/49 7/7/7
f 9/9/9 73/73/51 72/72/50
f 9/9/9 72/72/50 8/8/8
f 10/10/10 74/74/52 73/73/51
f 10/10/10 73/73/51 9/9/9
f 11/11/11 75/75/53 74/74/52
f 11/11/11 74/74/52 10/10/10
f 12/12/12 76/76/54 75/75/53
f 12/12/12 75/75/53 11/11/11
f 13/13/13 77/77/55 76/76/54
f 13/13/13 76/76/54 12/12/12
f 14/14/14 78/78/56 77/77/55
f 14/14/14 77/77/55 13/13/13
f 15/15/15 79/79/57 78/78/56
f 15/15/15 78/78/56 14/14/14
f 16/16/16 80/80/58 79/79/57
f 16/16/16 79/79/57 15/15/15
f 17/17/17 81/81/59 80/80/58
f 17/17/17 80/80/58 16/16/16
f 18/18/18 82/82/60 81/81/59
f 18/18/18 81/81/59 17/17/17
f 19/19/19 83/83/61 82/82/60
f 19/19/19 82/82/60 18/18/18
f 20/20/20 84/84/62 83/83/61
f 20/20/20 83/83/61 19/19/19
f 21/21/21 85/85/63 84/84/62
f 21/21/21 84/84/62 20/20/20
f 2/2/2 67/67/45 85/85/63
f 2/2/2 85/85/63 21/21/21
f 86/86/44 87/87/64 88/88/65
f 86/86/44 88/88/65 89/89/45
f 90/90/46 91/91/66 87/87/64
f 90/90/46 87/87/64 86/86/44
f 92/92/47 93/93/67 94/94/66
f 92/92/47 94/94/66 95/95/46
f 96/96/48 97/97/68 93/93/67
f 96/96/48 93/93/67 92/92/47
f 98/98/49 99/99/69 97/97/68
f 98/98/49 97/97/68 96/96/48
f 100/100/50 101/101/70 99/99/69
f 100/100/50 99/99/69 98/98/49
f 102/102/51 103/103/71 104/104/70
f 102/102/51 104/104/70 105/105/50
f 106/106/52 107/107/72 103/103/71
f 106/106/52 103/103/71 102/102/51
f 108/108/53 109/109/73 107/107/72
f 108/108/53 107/107/72 106/106/52
f 110/110/54 111/111/74 109/109/73
f 110/110/54 109/109/73 108/108/53
f 112/112/55 113/113/75 111/111/74
f 112/112/55 111/111/74 110/110/54
f 114/114/56 115/115/76 113/113/75
f 114/114/56 113/113/75 112/112/55
f 116/116/57 117/117/77 118/118/76
f 116/116/57 118/118/76 119/119/56
f 120/120/58 121/121/78 117/117/77
f 120/120/58 117/117/77 116/116/57
f 122/122/59 123/123/79 121/121/78
f 122/122/59 121/121/78 120/120/58
f 124/124/60 125/125/80 123/123/79
f 124/124/60 123/123/79 122/122/59
f 126/126/61 127/127/81 128/128/80
f 126/126/61 128/128/80 129/129/60
f 130/130/62 131/131/82 127/127/81
f 130/130/62 127/127/81 126/126/61
f 132/132/63 133/133/83 131/131/82
f 132/132/63 131/131/82 130/130/62
f 89/89/45 88/88/65 133/133/83
f 89/89/45 133/133/83 132/132/63
f 88/88/65 87/87/64 134/134/84
f 88/88/65 134/134/84 135/135/85
f 87/87/64 91/91/66 136/136/86
f 87/87/64 136/136/86 134/134/84
f 94/94/66 93/93/67 137/137/87
f 94/94/66 137/137/87 138/138/86
f 93/93/67 97/97/68 139/139/88
f 93/93/67 139/139/88 137/137/87
f 97/97/68 99/99/69 140/140/89
f 97/97/68 140/140/89 139/139/88
f 99/99/69 101/101/70 141/141/90
f 99/99/69 141/141/90 140/140/89
f 104/104/70 103/103/71 142/142/91
f 104/104/70 142/142/91 143/143/90
f 103/103/71 107/107/72 144/144/92
f 103/103/71 144/144/92 142/142/91
f 107/107/72 109/109/73 145/145/93
f 107/107/72 145/145/93 144/144/92
f 109/109/73 111/111/74 146/146/94
f 109/109/73 146/146/94 145/145/93
f 111/111/74 113/113/75 147/147/95
f 111/111/74 147/147/95 146/146/94
f 113/113/75 115/115/76 148/148/96
f 113/113/75 148/148/96 147/147/95
f 118/118/76 117/117/77 149/149/97
f 118/118/76 149/149/97 150/150/98
f 117/117/77 121/121/78 151/151/99
f 117/117/77 151/151/99 149/149/97
f 121/121/78 123/123/79 152/152/100
f 121/121/78 152/152/100 151/151/99
f 123/123/79 125/125/80 153/153/101
f 123/123/79 153/153/101 152/152/100
f 128/128/80 127/127/81 154/154/102
f 128/128/80 154/154/102 155/155/101
f 127/127/81 131/131/82 156/156/103
f 127/127/81 156/156/103 154/154/102
f 131/131/82 133/133/83 157/157/104
f 131/131/82 157/157/104 156/156/103
f 133/133/83 88/88/65 135/135/85
f 133/133/83 135/135/85 157/157/104
f 135/135/85 134/134/84 158/158/105
f 135/135/85 158/158/105 159/159/106
f 134/134/84 136/136/86 160/160/107
f 134/134/84 160/160/107 158/158/105
f 138/138/86 137/137/87 161/161/108
f 138/138/86 161/161/108 162/162/109
f 137/137/87 139/139/88 163/163/110
f 137/137/87 163/163/110 161/161/108
f 139/139/88 140/140/89 164/164/111
f 139/139/88 164/164/111 163/163/110
f 140/140/89 141/141/90 165/165/112
f 140/140/89 165/165/112 164/164/111
f 143/143/90 142/142/91 166/166/113
f 143/143/90 166/166/113 167/167/114
f 142/142/91 144/144/92 168/168/115
f 142/142/91 168/168/115 166/166/113
f 144/144/92 145/145/93 169/169/116
f 144/144/92 169/169/116 168/168/115
f 145/145/93 146/146/94 170/170/117
f 145/145/93 170/170/117 169/169/116
f 146/146/94 147/147/95 171/171/118
f 146/146/94 171/171/118 170/170/117
f 147/147/95 148/148/96 172/172/119
f 147/147/95 172/172/119 171/171/118
f 150/150/98 149/149/97 173/173/120
f 150/150/98 173/173/120 174/174/119
f 149/149/97 151/151/99 175/175/121
f 149/149/97 175/175/121 173/173/120
f 151/151/99 152/152/100 176/176/122
f 151/151/99 176/176/122 175/175/121
f 152/152/100 153/153/101 177/177/123
f 152/152/100 177/177/123 176/176/122
f 155/155/101 154/154/102 178/178/124
f 155/155/101 178/178/124 179/179/123
f 154/154/102 156/156/103 180/180/125
f 154/154/102 180/180/125 178/178/124
f 156/156/103 157/157/104 181/181/126
f 156/156/103 181/181/126 180/180/125
f 157/157/104 135/135/85 159/159/106
f 157/157/104 159/159/106 181/181/126
f 179/179/123 178/178/124 49/49/37
f 179/179/123 49/49/37 65/65/43
f 176/176/122 177/177/123 62/62/43
f 176/176/122 62/62/43 60/60/42
f 175/175/121 176/176/122 60/60/42
f 175/175/121 60/60/42 58/58/41
f 173/173/120 175/175/121 58/58/41
f 173/173/120 58/58/41 55/55/40
f 174/174/119 173/173/120 55/55/40
f 174/174/119 55/55/40 57/57/39
f 171/171/118 172/172/119 53/53/39
f 171/171/118 53/53/39 45/45/35
f 170/170/117 171/171/118 45/45/35
f 170/170/117 45/45/35 43/43/34
f 169/169/116 170/170/117 43/43/34
f 169/169/116 43/43/34 41/41/33
f 168/168/115 169/169/116 41/41/33
f 168/168/115 41/41/33 39/39/32
f 166/166/113 168/168/115 39/39/32
f 166/166/113 39/39/32 36/36/31
f 167/167/114 166/166/113 36/36/31
f 167/167/114 36/36/31 38/38/30
f 164/164/111 165/165/112 34/34/30
f 164/164/111 34/34/30 32/32/29
f 163/163/110 164/164/111 32/32/29
f 163/163/110 32/32/29 30/30/28
f 161/161/108 163/163/110 30/30/28
f 161/161/108 30/30/28 27/27/27
f 162/162/109 161/161/108 27/27/27
f 162/162/109 27/27/27 29/29/25
f 158/158/105 160/160/107 25/25/25
f 158/158/105 25/25/25 22/22/22
f 159/159/106 158/158/105 22/22/22
f 159/159/106 22/22/22 24/24/24
f 181/181/126 159/159/106 24/24/24
f 181/181/126 24/24/24 50/50/38
f 180/180/125 181/181/126 50/50/38
f 180/180/125 50/50/38 47/47/36
f 178/178/124 180/180/125 47/47/36
f 178/178/124 47/47/36 49/49/37
